<?xml version="1.0" standalone="no"?>
<!DOCTYPE svg PUBLIC "-//W3C//DTD SVG 20010904//EN"
 "http://www.w3.org/TR/2001/REC-SVG-20010904/DTD/svg10.dtd">
<svg version="1.0" xmlns="http://www.w3.org/2000/svg"
 width="100.000000pt" height="100.000000pt" viewBox="0 0 100.000000 100.000000"
 preserveAspectRatio="xMidYMid meet">
<metadata>
Created by potrace 1.14, written by Peter Selinger 2001-2017
</metadata>
<g transform="translate(0.000000,100.000000) scale(0.100000,-0.100000)"
fill="#000000" stroke="none">
<path d="M0 500 l0 -500 500 0 500 0 0 500 0 500 -500 0 -500 0 0 -500z m540
270 c10 -25 9 -32 -11 -59 l-22 -30 -29 20 c-32 23 -35 44 -12 78 13 18 18 20
25 10 7 -11 9 -10 9 3 0 26 26 11 40 -22z m118 -45 c18 -39 16 -43 -34 -67
-36 -18 -47 -20 -53 -9 -7 10 -13 11 -27 3 -16 -10 -9 -15 54 -43 51 -23 72
-38 72 -51 0 -17 -13 -18 -182 -17 -101 0 -177 3 -170 6 6 2 12 10 12 17 0 7
29 25 65 41 36 15 65 31 65 36 0 5 -12 11 -27 15 -42 9 -103 36 -103 46 0 5
14 1 31 -7 17 -9 36 -14 42 -12 7 2 -3 12 -21 21 -19 10 -32 20 -29 22 5 5 55
-20 114 -57 30 -19 33 -19 57 -3 14 9 26 22 26 30 0 13 63 53 86 54 6 0 16
-11 22 -25z m-471 -255 c-6 -25 -3 -30 13 -30 16 0 20 7 20 30 0 27 3 30 33
30 29 0 34 -5 55 -49 12 -27 22 -54 22 -60 0 -7 -35 -11 -105 -11 l-105 0 0
60 0 60 36 0 c35 0 36 -1 31 -30z m487 -8 l16 -37 -6 38 -6 37 85 0 86 0 12
-40 c7 -22 16 -40 21 -40 4 0 8 -9 8 -20 0 -19 -7 -20 -247 -20 -137 0 -253 4
-259 8 -19 13 -34 50 -27 69 15 42 21 43 164 42 l137 -1 16 -36z m-92 -109
c-50 -2 -134 -2 -185 0 -50 1 -9 3 93 3 102 0 143 -2 92 -3z m-87 -72 c50 0
120 6 158 13 40 8 67 9 67 3 0 -5 13 -7 29 -5 25 4 30 1 34 -21 2 -14 7 -33
11 -42 12 -28 -57 -37 -289 -37 -202 0 -325 10 -325 28 0 4 7 13 15 20 8 7 15
23 15 36 0 21 3 22 24 14 18 -6 26 -5 29 4 4 11 18 11 74 0 37 -7 109 -13 158
-13z"/>
<path d="M595 690 c-3 -6 1 -7 9 -4 18 7 21 14 7 14 -6 0 -13 -4 -16 -10z"/>
<path d="M614 674 c-18 -14 -18 -14 6 -3 31 14 36 19 24 19 -6 0 -19 -7 -30
-16z"/>
<path d="M415 589 l-80 -39 160 1 160 0 -75 39 c-41 21 -77 39 -80 39 -3 0
-41 -18 -85 -40z"/>
<path d="M581 444 c0 -11 3 -14 6 -6 3 7 2 16 -1 19 -3 4 -6 -2 -5 -13z"/>
<path d="M410 440 c0 -5 7 -10 16 -10 8 0 12 5 9 10 -3 6 -10 10 -16 10 -5 0
-9 -4 -9 -10z"/>
<path d="M310 253 c0 -14 2 -15 9 -4 5 8 14 10 21 6 9 -5 11 -4 6 3 -11 18
-36 14 -36 -5z"/>
<path d="M366 246 c6 -16 4 -18 -12 -12 -15 6 -17 5 -6 -5 9 -10 15 -10 24 -1
9 9 9 15 -1 25 -10 10 -11 8 -5 -7z"/>
<path d="M615 250 c-8 -13 3 -30 18 -30 8 0 7 3 -2 9 -7 5 -10 14 -7 20 4 6 5
11 2 11 -3 0 -8 -4 -11 -10z"/>
<path d="M650 245 c0 -9 6 -12 15 -9 8 4 12 10 9 15 -8 14 -24 10 -24 -6z"/>
<path d="M440 229 c0 -24 23 -21 28 4 2 10 -3 17 -12 17 -10 0 -16 -9 -16 -21z"/>
<path d="M530 232 c0 -10 7 -19 15 -19 12 0 12 3 2 16 -9 12 -9 13 1 7 6 -4
12 -2 12 3 0 6 -7 11 -15 11 -8 0 -15 -8 -15 -18z"/>
<path d="M570 236 c0 -8 4 -17 9 -20 5 -4 7 3 4 14 -6 23 -13 26 -13 6z"/>
</g>
</svg>
